<?xml version="1.0" encoding="utf-8"?>
<!-- Generated by Mocodo 4.3.2 -->
<svg width="276" height="170" viewBox="0 0 276 170" xmlns="http://www.w3.org/2000/svg">
<rect x="0" y="0" width="276" height="170" fill="none" stroke="none" stroke-width="0"/>

<!-- Association ECRIRE -->
<g>
	<line x1="234" y1="85" x2="139" y2="85" stroke="#726f83" stroke-width="2"/>
	<line x1="43" y1="85" x2="139" y2="85" stroke="#726f83" stroke-width="2"/>
	<g>
		<path d="M155 60 a14 14 90 0 1 14 14 V85 h-60 V74 a14 14 90 0 1 14 -14" fill="#b2bba4" stroke="#b2bba4" stroke-width="0"/>
		<path d="M169 85 v11 a14 14 90 0 1 -14 14 H123 a14 14 90 0 1 -14 -14 V85 H60" fill="#ccd6ba" stroke="#ccd6ba" stroke-width="0"/>
		<rect x="109" y="60" width="60" height="50" fill="none" rx="14" stroke="#85956b" stroke-width="2"/>
		<line x1="109" y1="85" x2="169" y2="85" stroke="#85956b" stroke-width="1"/>
		<text x="116" y="77.75" fill="#27360c" font-family="Verdana" font-size="12">ÉCRIRE</text>
	</g>
	<text x="174" y="102" fill="#726f83" font-family="Verdana" font-size="12">0,N</text>
	<text x="82" y="102" fill="#726f83" font-family="Verdana" font-size="12">1,1</text>
</g>

<!-- Entity USER -->
<g>
	<g>
		<rect x="9" y="9" width="68" height="25" fill="#97b8ff" stroke="none" stroke-width="0" opacity="1"/>
		<rect x="9" y="34" width="68" height="127" fill="#c0d4ff" stroke="none" stroke-width="0" opacity="1"/>
		<rect x="9" y="9" width="68" height="152" fill="none" stroke="#578dff" stroke-width="2" opacity="1"/>
		<line x1="9" y1="34" x2="77" y2="34" stroke="#578dff" stroke-width="1"/>
	</g>
	<text x="26" y="26.75" fill="#131114" font-family="Verdana" font-size="12">USER</text>
	<text x="14" y="51.8" fill="#3e3c42" font-family="Verdana" font-size="12">id_user</text>
	<line x1="14" y1="54" x2="60" y2="54" stroke="#3e3c42" stroke-width="1"/>
	<text x="14" y="68.8" fill="#3e3c42" font-family="Verdana" font-size="12">name</text>
	<text x="14" y="85.8" fill="#3e3c42" font-family="Verdana" font-size="12">password</text>
	<text x="14" y="102.8" fill="#3e3c42" font-family="Verdana" font-size="12">email</text>
	<text x="14" y="119.8" fill="#3e3c42" font-family="Verdana" font-size="12">date</text>
	<text x="14" y="136.8" fill="#3e3c42" font-family="Verdana" font-size="12">role</text>
	<text x="14" y="153.8" fill="#3e3c42" font-family="Verdana" font-size="12">age</text>
</g>

<!-- Entity ARTICLE -->
<g>
	<g>
		<rect x="201" y="43" width="66" height="25" fill="#97b8ff" stroke="none" stroke-width="0" opacity="1"/>
		<rect x="201" y="68" width="66" height="59" fill="#c0d4ff" stroke="none" stroke-width="0" opacity="1"/>
		<rect x="201" y="43" width="66" height="84" fill="none" stroke="#578dff" stroke-width="2" opacity="1"/>
		<line x1="201" y1="68" x2="267" y2="68" stroke="#578dff" stroke-width="1"/>
	</g>
	<text x="208" y="60.75" fill="#131114" font-family="Verdana" font-size="12">ARTICLE</text>
	<text x="206" y="85.8" fill="#3e3c42" font-family="Verdana" font-size="12">id_article</text>
	<line x1="206" y1="88" x2="262" y2="88" stroke="#3e3c42" stroke-width="1"/>
	<text x="206" y="102.8" fill="#3e3c42" font-family="Verdana" font-size="12">title</text>
	<text x="206" y="119.8" fill="#3e3c42" font-family="Verdana" font-size="12">content</text>
</g>
</svg>